<svg width="512" height="512" viewBox="0 0 512 512" fill="none" xmlns="http://www.w3.org/2000/svg">
  <rect width="512" height="512" rx="128" fill="url(#gradient)"/>
  <g filter="url(#glow)">
    <path d="M256 128C256 128 192 192 192 256C192 320 224 352 256 352C288 352 320 320 320 256C320 192 256 128 256 128Z" fill="white" fill-opacity="0.9"/>
    <path d="M256 176C256 176 224 208 224 256C224 304 240 320 256 320C272 320 288 304 288 256C288 208 256 176 256 176Z" fill="url(#gradient2)"/>
  </g>
  <circle cx="256" cy="256" r="8" fill="white"/>
  <path d="M200 380H312V388C312 396.837 304.837 404 296 404H216C207.163 404 200 396.837 200 388V380Z" fill="white" fill-opacity="0.7"/>
  <defs>
    <linearGradient id="gradient" x1="0" y1="0" x2="512" y2="512" gradientUnits="userSpaceOnUse">
      <stop stop-color="#6B46C1"/>
      <stop offset="0.5" stop-color="#805AD5"/>
      <stop offset="1" stop-color="#9F7AEA"/>
    </linearGradient>
    <linearGradient id="gradient2" x1="224" y1="176" x2="288" y2="320" gradientUnits="userSpaceOnUse">
      <stop stop-color="#E9D8FD"/>
      <stop offset="1" stop-color="#B794F4"/>
    </linearGradient>
    <filter id="glow" x="172" y="108" width="168" height="264" filterUnits="userSpaceOnUse" color-interpolation-filters="sRGB">
      <feFlood flood-opacity="0" result="BackgroundImageFix"/>
      <feColorMatrix in="SourceAlpha" type="matrix" values="0 0 0 0 0 0 0 0 0 0 0 0 0 0 0 0 0 0 127 0" result="hardAlpha"/>
      <feOffset dy="4"/>
      <feGaussianBlur stdDeviation="10"/>
      <feComposite in2="hardAlpha" operator="out"/>
      <feColorMatrix type="matrix" values="0 0 0 0 0.420 0 0 0 0 0.257 0 0 0 0 0.678 0 0 0 0.3 0"/>
      <feBlend mode="normal" in2="BackgroundImageFix" result="effect1_dropShadow"/>
      <feBlend mode="normal" in="SourceGraphic" in2="effect1_dropShadow" result="shape"/>
    </filter>
  </defs>
</svg>
